<svg width="40" height="40" viewBox="0 0 40 40" fill="none" xmlns="http://www.w3.org/2000/svg">
<path fill-rule="evenodd" clip-rule="evenodd" d="M36.5388 17.6115C36.3014 19.2561 35.7389 20.8191 34.9052 22.2565C34.9676 22.6123 34.9997 22.972 34.9997 23.3333C34.9997 24.588 34.6362 25.7888 33.9627 26.8798C33.6266 27.4244 33.5401 28.0625 33.5068 28.4841C33.4687 28.9673 33.4815 29.496 33.516 30.0039C33.5547 30.5736 33.6247 31.1718 33.7049 31.7362C33.0545 31.5465 32.3493 31.356 31.6764 31.2042C31.1167 31.0779 30.5441 30.9703 30.0253 30.9167C29.5728 30.87 28.919 30.8338 28.3342 31.0228C27.0558 31.4361 25.649 31.6666 24.1663 31.6666C22.4032 31.6666 20.7838 31.3537 19.3644 30.81C19.023 30.8255 18.6791 30.8333 18.333 30.8333C16.3253 30.8333 14.393 30.5693 12.5851 30.0813C15.2133 33.1211 19.5461 35 24.1663 35C25.9713 35 27.7036 34.7229 29.3 34.2136C29.3028 34.2138 29.3079 34.2137 29.3155 34.2135C29.3565 34.2127 29.4702 34.2104 29.6828 34.2324C30.0172 34.2669 30.447 34.3439 30.9429 34.4558C31.9302 34.6785 33.0396 35.0072 33.9043 35.2816C35.7378 35.8637 37.5144 34.2636 37.1867 32.4029C37.0457 31.6021 36.8992 30.6247 36.8417 29.778C36.8127 29.3523 36.8096 29.0028 36.8298 28.7464C36.8382 28.6401 36.8489 28.5735 36.8557 28.5381C37.7934 26.9847 38.333 25.2162 38.333 23.3333C38.333 21.2107 37.6737 19.2725 36.5388 17.6115Z" fill="#FF5A30"/>
<path fill-rule="evenodd" clip-rule="evenodd" d="M9.32809 9.49694C7.0815 11.2149 5.83302 13.4701 5.83302 15.8333C5.83302 17.0117 6.13979 18.1467 6.71533 19.2021C6.93454 19.604 6.99673 20.0187 7.01896 20.2994C7.04321 20.6055 7.03112 20.92 7.00451 21.2142C6.95121 21.8032 6.82409 22.4705 6.6716 23.1277C6.49323 23.8966 6.26468 24.7165 6.03276 25.4863C6.91318 25.1663 7.87545 24.8384 8.7877 24.5723C9.52498 24.3572 10.2695 24.1705 10.9322 24.0657C11.5031 23.9755 12.3314 23.8868 13.0446 24.1335C14.6452 24.6872 16.4356 25 18.333 25C21.9116 25 25.0898 23.8889 27.338 22.1697C29.5845 20.4517 30.833 18.1965 30.833 15.8333C30.833 13.4701 29.5845 11.2149 27.338 9.49694C25.0898 7.77778 21.9116 6.66667 18.333 6.66667C14.7544 6.66667 11.5762 7.77778 9.32809 9.49694ZM7.30326 6.84908C10.1825 4.64735 14.0876 3.33333 18.333 3.33333C22.5784 3.33333 26.4836 4.64735 29.3628 6.84908C32.2435 9.05199 34.1664 12.2134 34.1664 15.8333C34.1664 19.4532 32.2435 22.6147 29.3628 24.8176C26.4836 27.0193 22.5784 28.3333 18.333 28.3333C16.0946 28.3333 13.9565 27.9684 12.0151 27.3044C12.0132 27.3098 11.8557 27.2945 11.4528 27.3582C10.9884 27.4316 10.3956 27.5755 9.72126 27.7722C8.37881 28.1638 6.87123 28.7179 5.72292 29.1648C3.73354 29.939 1.70695 28.0284 2.37722 25.9932C2.73247 24.9146 3.15144 23.5514 3.42451 22.3744C3.56207 21.7815 3.65133 21.283 3.68474 20.9138C3.69633 20.7857 3.69933 20.6923 3.69866 20.6291C2.93152 19.1632 2.49969 17.5421 2.49969 15.8333C2.49969 12.2134 4.42253 9.05199 7.30326 6.84908ZM3.69317 20.5382C3.69333 20.538 3.69414 20.5425 3.69511 20.5522C3.69349 20.5433 3.69301 20.5384 3.69317 20.5382Z" fill="#FF5A30"/>
</svg>
