<svg width="16" height="16" viewBox="0 0 16 16" fill="none" xmlns="http://www.w3.org/2000/svg">
<path fill-rule="evenodd" clip-rule="evenodd" d="M14.6153 7.04508C14.5204 7.7029 14.2954 8.32813 13.9619 8.90307C13.9869 9.04541 13.9997 9.1893 13.9997 9.3338C13.9997 9.83568 13.8543 10.316 13.5849 10.7524C13.4504 10.9702 13.4158 11.2255 13.4025 11.3941C13.3873 11.5874 13.3924 11.7989 13.4062 12.002C13.4217 12.2299 13.4497 12.4692 13.4818 12.695C13.2216 12.6191 12.9395 12.5429 12.6704 12.4821C12.4465 12.4316 12.2174 12.3886 12.0099 12.3672C11.8289 12.3485 11.5674 12.334 11.3335 12.4096C10.8221 12.5749 10.2594 12.6671 9.66636 12.6671C8.96109 12.6671 8.31335 12.5419 7.74559 12.3245C7.60903 12.3307 7.47147 12.3338 7.33301 12.3338C6.52993 12.3338 5.75701 12.2282 5.03385 12.033C6.08516 13.2489 7.81828 14.0005 9.66636 14.0005C10.3883 14.0005 11.0812 13.8896 11.7198 13.6859C11.7209 13.686 11.723 13.6859 11.726 13.6859C11.7424 13.6856 11.7879 13.6847 11.8729 13.6934C12.0067 13.7072 12.1786 13.7381 12.377 13.7828C12.7719 13.8719 13.2157 14.0033 13.5615 14.1131C14.2949 14.3459 15.0056 13.7059 14.8745 12.9617C14.8181 12.6413 14.7595 12.2504 14.7365 11.9117C14.7249 11.7414 14.7236 11.6016 14.7317 11.499C14.7351 11.4565 14.7394 11.4299 14.7421 11.4157C15.1172 10.7944 15.333 10.087 15.333 9.3338C15.333 8.48477 15.0693 7.70946 14.6153 7.04508Z" fill="#787A80"/>
<path fill-rule="evenodd" clip-rule="evenodd" d="M3.73109 3.79894C2.83245 4.48613 2.33306 5.38822 2.33306 6.3335C2.33306 6.80486 2.45577 7.25883 2.68599 7.68098C2.77367 7.84177 2.79854 8.00763 2.80744 8.11991C2.81714 8.24234 2.8123 8.36818 2.80166 8.48585C2.78034 8.72142 2.72949 8.98835 2.66849 9.25125C2.59715 9.55878 2.50572 9.88675 2.41296 10.1947C2.76512 10.0667 3.15003 9.93552 3.51493 9.82907C3.80985 9.74303 4.10767 9.66837 4.37274 9.62646C4.60108 9.59035 4.93243 9.55487 5.2177 9.65356C5.85792 9.87506 6.57411 10.0002 7.33306 10.0002C8.76451 10.0002 10.0358 9.55572 10.935 8.86805C11.8337 8.18086 12.3331 7.27877 12.3331 6.3335C12.3331 5.38822 11.8337 4.48613 10.935 3.79894C10.0358 3.11127 8.76451 2.66683 7.33306 2.66683C5.90162 2.66683 4.63034 3.11127 3.73109 3.79894ZM2.92116 2.73979C4.07283 1.8591 5.63489 1.3335 7.33306 1.3335C9.03123 1.3335 10.5933 1.8591 11.745 2.73979C12.8973 3.62096 13.6664 4.88554 13.6664 6.3335C13.6664 7.78146 12.8973 9.04603 11.745 9.9272C10.5933 10.8079 9.03123 11.3335 7.33306 11.3335C6.43769 11.3335 5.58244 11.1875 4.80591 10.9219C4.80513 10.9241 4.74215 10.9179 4.58098 10.9434C4.39521 10.9728 4.15809 11.0304 3.88836 11.109C3.35138 11.2657 2.74835 11.4873 2.28902 11.6661C1.49327 11.9758 0.682633 11.2115 0.95074 10.3975C1.09284 9.96598 1.26043 9.42072 1.36966 8.94992C1.42468 8.71275 1.46039 8.51336 1.47375 8.36569C1.47839 8.31443 1.47958 8.27707 1.47932 8.25181C1.17246 7.66543 0.99973 7.01699 0.99973 6.3335C0.99973 4.88554 1.76887 3.62096 2.92116 2.73979Z" fill="#787A80"/>
</svg>
