<svg width="48" height="48" viewBox="0 0 48 48" fill="none" xmlns="http://www.w3.org/2000/svg">
<g clip-path="url(#clip0_5385_472)">
<path d="M38.0531 2.08952C31.8838 1.4411 26.3372 5.93268 25.6888 12.1019L24.5619 22.8241C24.4807 23.5965 25.041 24.2885 25.8134 24.3697L26.2796 24.4187L25.1036 35.607C24.5633 40.7481 28.3063 45.3703 33.4473 45.9106C38.5884 46.451 43.2106 42.708 43.7509 37.567L44.9269 26.3786L45.3931 26.4276C46.1654 26.5088 46.8574 25.9484 46.9386 25.176L48.0655 14.4538C48.714 8.28457 44.2224 2.73794 38.0531 2.08952ZM37.7591 4.88661C42.3861 5.37292 45.7548 9.5329 45.2685 14.1598L44.8765 17.8893L28.0939 16.1254L28.4859 12.3959C28.9722 7.76898 33.1322 4.4003 37.7591 4.88661ZM27.5059 21.7196L27.7999 18.9225L44.5825 20.6864L44.2885 23.4835L27.5059 21.7196ZM40.9538 37.273C40.5756 40.8717 37.3401 43.4918 33.7413 43.1135C30.1426 42.7353 27.5225 39.4998 27.9007 35.901L29.0767 24.7127L42.1298 26.0846L40.9538 37.273Z" fill="#FF5A30"/>
<path d="M32.1706 40.1204L35.9001 40.5123C36.6724 40.5935 37.3644 40.0332 37.4456 39.2608C37.5268 38.4884 36.9664 37.7964 36.194 37.7152L32.4646 37.3233C31.6922 37.2421 31.0002 37.8024 30.919 38.5748C30.8379 39.3472 31.3982 40.0392 32.1706 40.1204Z" fill="#FF5A30"/>
<path d="M9.94716 2.08944C3.77789 2.73785 -0.713682 8.28448 -0.0652657 14.4538L1.06168 25.1759C1.14286 25.9483 1.83485 26.5087 2.60722 26.4275L3.0734 26.3785L4.24935 37.5669C4.7897 42.7079 9.41189 46.4509 14.5529 45.9106C19.694 45.3702 23.437 40.748 22.8966 35.607L21.7207 24.4186L22.1869 24.3696C22.9592 24.2884 23.5196 23.5964 23.4384 22.8241L22.3115 12.1019C21.6631 5.93259 16.1164 1.44102 9.94716 2.08944ZM3.71178 23.4834L3.4178 20.6863L20.2004 18.9224L20.4943 21.7195L3.71178 23.4834ZM20.0995 35.9009C20.4778 39.4997 17.8577 42.7352 14.259 43.1135C10.6602 43.4917 7.42468 40.8716 7.04644 37.2729L5.8705 26.0845L18.9236 24.7126L20.0995 35.9009ZM19.9064 16.1253L3.12381 17.8892L2.73183 14.1598C2.24552 9.53282 5.6142 5.37284 10.2411 4.88653C14.8681 4.40022 19.0281 7.7689 19.5144 12.3958L19.9064 16.1253Z" fill="#FF5A30"/>
<path d="M12.1002 40.5124L15.8297 40.1204C16.6021 40.0392 17.1624 39.3473 17.0813 38.5749C17.0001 37.8025 16.3081 37.2422 15.5357 37.3233L11.8063 37.7153C11.0339 37.7965 10.4735 38.4885 10.5547 39.2609C10.6359 40.0332 11.3279 40.5936 12.1002 40.5124Z" fill="#FF5A30"/>
</g>
<defs>
<clipPath id="clip0_5385_472">
<rect width="48" height="48" fill="white"/>
</clipPath>
</defs>
</svg>
